<?xml version="1.0" encoding="UTF-8" standalone="no"?>
<!-- Created with Inkscape (http://www.inkscape.org/) -->

<svg
   width="210mm"
   height="209.99998mm"
   viewBox="0 0 210 209.99998"
   version="1.1"
   id="svg5"
   xml:space="preserve"
   sodipodi:docname="dotfiles-dark.svg"
   inkscape:export-filename="dotfiles-better.svg"
   inkscape:export-xdpi="96.760002"
   inkscape:export-ydpi="96.760002"
   xmlns:inkscape="http://www.inkscape.org/namespaces/inkscape"
   xmlns:sodipodi="http://sodipodi.sourceforge.net/DTD/sodipodi-0.dtd"
   xmlns="http://www.w3.org/2000/svg"
   xmlns:svg="http://www.w3.org/2000/svg"><sodipodi:namedview
     id="namedview7"
     pagecolor="#505050"
     bordercolor="#eeeeee"
     borderopacity="1"
     inkscape:showpageshadow="0"
     inkscape:pageopacity="0"
     inkscape:pagecheckerboard="0"
     inkscape:deskcolor="#505050"
     inkscape:document-units="mm"
     showgrid="false"
     inkscape:zoom="0.59178946"
     inkscape:cx="319.37034"
     inkscape:cy="547.49201"
     inkscape:window-width="1920"
     inkscape:window-height="1051"
     inkscape:window-x="0"
     inkscape:window-y="0"
     inkscape:window-maximized="1"
     inkscape:current-layer="layer1"><inkscape:page
       x="0"
       y="0"
       width="210"
       height="209.99997"
       id="page2"
       margin="0"
       bleed="0" /></sodipodi:namedview><defs
     id="defs2"><rect
       x="45.106991"
       y="286.10721"
       width="1018.3129"
       height="690.15991"
       id="rect219" /></defs><g
     inkscape:label="Layer 1"
     inkscape:groupmode="layer"
     id="layer1"
     transform="translate(-3.8322161e-8,-43.500003)"><rect
       style="fill:#1c1b27;fill-opacity:1;stroke-width:0.264583"
       id="rect111"
       width="210"
       height="210"
       x="3.832216e-08"
       y="43.5"
       ry="0" /><g
       aria-label="~/."
       transform="matrix(0.26458333,0,0,0.26458333,-30.370089,4.0915801)"
       id="text217"
       style="font-size:493.333px;letter-spacing:-70px;word-spacing:0px;white-space:pre;shape-inside:url(#rect219);shape-padding:1.68979;fill:#20c3ae;fill-opacity:1"><path
         d="m 272.35388,515.81614 q 18.72135,0 32.12989,7.84273 13.66153,7.58974 24.28717,17.70939 10.62563,9.86666 20.49229,17.4564 9.86666,7.58974 21.50426,7.58974 15.17948,0 26.56408,-11.38461 11.6376,-11.6376 21.50426,-30.10596 l 35.92477,17.20341 q -8.8547,17.96238 -20.23931,34.15382 -11.3846,15.93845 -27.32306,26.0581 -15.93845,9.86666 -38.20168,9.86666 -17.96238,0 -31.37092,-7.58974 -13.15555,-7.58973 -24.03417,-17.4564 -10.62564,-10.11965 -20.99828,-17.70939 -10.11965,-7.84272 -22.01024,-7.84272 -15.68546,0 -27.07007,11.89059 -11.13161,11.63759 -20.99827,29.85297 l -35.92477,-16.95042 q 8.60171,-17.20341 19.98631,-33.39485 11.38461,-16.19144 27.32306,-26.56408 15.93845,-10.62564 38.45468,-10.62564 z"
         style="font-weight:500;font-family:'Fira Code';-inkscape-font-specification:'Fira Code, Medium';text-align:center;text-anchor:middle;fill:#20c3ae;fill-opacity:1"
         id="path3103" /><path
         d="M 469.51194,778.16811 424.47949,757.9288 639.52208,313.42311 684.04855,334.42139 Z"
         style="font-weight:500;font-family:'Fira Code';-inkscape-font-specification:'Fira Code, Medium';text-align:center;text-anchor:middle;fill:#20c3ae;fill-opacity:1"
         id="path3105" /><path
         d="m 738.77252,682.03142 q 0,-20.23931 13.91452,-34.40682 14.16751,-14.4205 34.9128,-14.4205 20.74528,0 34.91279,14.4205 14.16751,14.16751 14.16751,34.40682 0,20.2393 -14.16751,34.6598 -14.16751,14.42051 -34.91279,14.42051 -20.74529,0 -34.9128,-14.42051 -13.91452,-14.4205 -13.91452,-34.6598 z"
         style="font-weight:500;font-family:'Fira Code';-inkscape-font-specification:'Fira Code, Medium';text-align:center;text-anchor:middle;fill:#20c3ae;fill-opacity:1"
         id="path3107" /></g></g></svg>
