<?xml version="1.0" encoding="UTF-8" standalone="no"?>
<!-- Svg Vector Icons : http://www.onlinewebfonts.com/icon -->

<svg
   version="1.1"
   x="0px"
   y="0px"
   viewBox="0 0 236.10001 236.2"
   enable-background="new 0 0 256 256"
   xml:space="preserve"
   id="svg2"
   sodipodi:docname="network.svg"
   width="236.10001"
   height="236.2"
   xmlns:inkscape="http://www.inkscape.org/namespaces/inkscape"
   xmlns:sodipodi="http://sodipodi.sourceforge.net/DTD/sodipodi-0.dtd"
   xmlns="http://www.w3.org/2000/svg"
   xmlns:svg="http://www.w3.org/2000/svg"><defs
   id="defs2" /><sodipodi:namedview
   id="namedview2"
   pagecolor="#ffffff"
   bordercolor="#999999"
   borderopacity="1"
   inkscape:showpageshadow="2"
   inkscape:pageopacity="0"
   inkscape:pagecheckerboard="0"
   inkscape:deskcolor="#d1d1d1" />
<metadata
   id="metadata1"> Svg Vector Icons : http://www.onlinewebfonts.com/icon </metadata>
<g
   id="g2"
   transform="translate(-9.9,-9.9)"><g
     id="g1"
     style="fill:#278964;fill-opacity:1"><path
       fill="#000000"
       d="m 245.9,123.1 c 0.1,1.6 0.1,3.3 0.1,4.9 0,1.6 0,3.3 -0.1,4.9 h -0.1 c -0.7,17.7 -5.3,34.3 -13,49.2 h 0.1 c -0.1,0.2 -0.3,0.4 -0.4,0.7 -1.2,2.3 -2.5,4.5 -3.9,6.7 -0.5,0.8 -0.9,1.7 -1.4,2.5 h -0.1 c -18.3,28.3 -48.4,48.2 -83.3,52.9 0,0 0.1,0 0.1,0.1 -0.7,0.1 -1.3,0.1 -2,0.2 -1.2,0.1 -2.4,0.3 -3.6,0.4 -3.4,0.3 -6.8,0.5 -10.3,0.5 -3.5,0 -6.9,-0.2 -10.3,-0.5 -1.2,-0.1 -2.4,-0.2 -3.6,-0.4 -0.7,-0.1 -1.3,-0.1 -2,-0.2 0,0 0.1,0 0.1,-0.1 -34.9,-4.7 -65,-24.6 -83.3,-52.9 h -0.1 c -0.5,-0.8 -0.9,-1.7 -1.4,-2.5 -1.3,-2.2 -2.7,-4.4 -3.9,-6.7 -0.1,-0.2 -0.3,-0.4 -0.4,-0.7 h 0.1 C 15.4,167.3 10.9,150.6 10.1,132.9 H 10 c -0.1,-1.6 -0.1,-3.3 -0.1,-4.9 0,-1.6 0,-3.3 0.1,-4.9 h 0.1 c 0.7,-17.7 5.3,-34.3 13,-49.2 H 23 c 0.1,-0.2 0.3,-0.4 0.4,-0.7 1.2,-2.3 2.5,-4.5 3.9,-6.7 0.5,-0.8 0.9,-1.7 1.4,-2.5 h 0.1 c 18.3,-28.3 48.4,-48.2 83.3,-52.9 0,0 -0.1,0 -0.1,-0.1 0.6,-0.1 1.3,-0.1 2,-0.2 1.2,-0.1 2.4,-0.3 3.6,-0.4 3.4,-0.3 6.8,-0.5 10.3,-0.5 3.5,0 6.9,0.2 10.3,0.5 1.2,0.1 2.4,0.2 3.6,0.4 0.7,0.1 1.3,0.1 2,0.2 0,0 -0.1,0 -0.1,0.1 34.9,4.7 65,24.6 83.3,52.9 h 0.1 c 0.5,0.8 0.9,1.7 1.4,2.5 1.3,2.2 2.7,4.4 3.9,6.7 0.1,0.2 0.3,0.4 0.4,0.7 h -0.1 c 7.8,14.8 12.3,31.5 13.1,49.2 z m -10,9.8 h -49.2 c -0.6,17.3 -4.2,33.8 -10.3,49.2 h 45.1 c 8.5,-14.6 13.6,-31.3 14.4,-49.2 z M 94.8,64.1 h 28.3 v -37 c -11.4,10.6 -21,23.1 -28.3,37 z m 66.4,127.8 h -28.3 v 36.9 c 11.4,-10.5 21,-23 28.3,-36.9 z m -38.1,37 V 192 H 94.8 c 7.3,13.8 16.9,26.3 28.3,36.9 z m 0,-46.8 v -49.2 h -44 c 0.6,17.4 4.6,34 11.1,49.2 z m 0,-59 V 73.9 H 90.2 c -6.5,15.2 -10.5,31.7 -11.1,49.2 z m 9.8,-96 V 64 h 28.3 C 153.9,50.2 144.3,37.7 132.9,27.1 Z m 0,46.8 v 49.2 h 44 c -0.6,-17.4 -4.6,-34 -11.1,-49.2 z m 0,59 v 49.2 h 32.9 c 6.5,-15.2 10.5,-31.7 11.1,-49.2 z m 82.2,59 h -42.8 c -7.9,16.4 -18.8,31 -31.8,43.3 30.6,-3.5 57.2,-19.7 74.6,-43.3 z m -99.6,43.3 C 102.4,222.9 91.5,208.3 83.7,191.9 H 40.9 c 17.4,23.6 44,39.8 74.6,43.3 z m -81,-53.1 h 45.1 c -6,-15.3 -9.7,-31.8 -10.3,-49.2 H 20.1 c 0.8,17.9 5.9,34.6 14.4,49.2 z m -14.4,-59 H 69.3 C 69.9,105.8 73.5,89.3 79.6,73.9 H 34.5 C 26,88.5 20.9,105.2 20.1,123.1 Z m 20.8,-59 h 42.8 c 7.9,-16.4 18.8,-31 31.8,-43.3 -30.6,3.5 -57.2,19.7 -74.6,43.3 z m 99.6,-43.3 c 13.1,12.3 24,26.9 31.8,43.3 h 42.8 C 197.7,40.5 171.1,24.3 140.5,20.8 Z m 81,53.1 h -45.1 c 6,15.3 9.7,31.8 10.3,49.2 h 49.2 C 235.1,105.2 230,88.5 221.5,73.9 Z"
       id="path1"
       style="fill:#278964;fill-opacity:1" /></g></g>
</svg>
