<svg clip-rule="evenodd" fill-rule="evenodd" stroke-linejoin="round" stroke-miterlimit="2" viewBox="0 0 560 400" xmlns="http://www.w3.org/2000/svg"><path d="m30.167 4.866 7.953-4.732c.87-.429 1.88.211 1.88 1.378v28.798c0 .54-.585 1.133-1.307 1.133h-3.655c-.721-.005-1.31-.602-1.306-1.323v-20.768l-2.444 1.458c-.868.426-1.855-.237-1.855-1.213v-3.542c0-.507.285-.968.734-1.19zm-16.057 20.965c-3.246 0-5.977-2.607-5.977-6.415 0-3.86 2.73-6.416 5.977-6.416 3.246 0 5.925 2.555 5.925 6.416 0 3.808-2.68 6.415-5.925 6.415zm7.368-18.463c-.773 0-1.236.469-1.236 1.251v1.356c-1.392-1.722-3.968-3.026-6.545-3.026-6.286.001-11.697 5.425-11.697 12.518 0 7.094 5.1 11.997 11.542 11.997 2.421.012 4.74-.991 6.389-2.764-.05 4.954-2.627 7.198-7.059 7.198-2.37 0-4.586-.731-7.161-2.4-.67-.469-1.443-.313-1.804.418l-1.547 3.077c-.36.73-.257 1.408.464 1.877 3.196 2.086 6.958 3.13 10.204 3.13 8.502 0 13.19-4.643 13.19-15.335v-18.045c0-.782-.463-1.251-1.236-1.251h-3.504z" fill="#e52e2e" fill-rule="nonzero" transform="matrix(5.26316 0 0 5.26316 169.474 89.4733)"/></svg>