<?xml version="1.0" encoding="UTF-8" standalone="no"?>
<svg
   width="12.000006"
   height="16.000189"
   fill="currentColor"
   class="bi bi-lightbulb"
   viewBox="0 0 12.000006 16.000189"
   version="1.1"
   id="svg1"
   sodipodi:docname="lightbulb.svg"
   xmlns:inkscape="http://www.inkscape.org/namespaces/inkscape"
   xmlns:sodipodi="http://sodipodi.sourceforge.net/DTD/sodipodi-0.dtd"
   xmlns="http://www.w3.org/2000/svg"
   xmlns:svg="http://www.w3.org/2000/svg">
  <defs
     id="defs1" />
  <sodipodi:namedview
     id="namedview1"
     pagecolor="#ffffff"
     bordercolor="#999999"
     borderopacity="1"
     inkscape:showpageshadow="2"
     inkscape:pageopacity="0"
     inkscape:pagecheckerboard="0"
     inkscape:deskcolor="#d1d1d1" />
  <path
     d="M 5.7220459e-6,6.0001884 A 6,6 0 1 1 10.174006,10.310188 c -0.2030003,0.196 -0.3590003,0.4 -0.4530003,0.619 l -0.762,1.769 a 0.5,0.5 0 0 1 -0.459,0.302 0.5,0.5 0 0 1 0,1 0.5,0.5 0 0 1 0,1 l -0.224,0.447 a 1,1 0 0 1 -0.894,0.553 h -2.764 a 1,1 0 0 1 -0.894,-0.553 l -0.224,-0.447 a 0.5,0.5 0 0 1 0,-1 0.5,0.5 0 0 1 0,-1 0.5,0.5 0 0 1 -0.46,-0.302 l -0.761,-1.77 a 2,2 0 0 0 -0.453,-0.618 A 5.98,5.98 0 0 1 5.7220459e-6,6.0001884 m 5.9999999779541,-5 a 5,5 0 0 0 -3.479,8.592 c 0.263,0.254 0.514,0.5639996 0.676,0.9409996 l 0.633,1.467 h 4.342 l 0.632,-1.467 c 0.162,-0.377 0.413,-0.6869996 0.676,-0.9409996 a 5,5 0 0 0 -3.48,-8.592"
     id="path1"
     style="fill:#0dd5d7;fill-opacity:1" />
</svg>
